<svg xmlns="http://www.w3.org/2000/svg" viewBox="0 0 1164.58 504.35"><g id="Слой_2" data-name="Слой 2"><g id="Слой_1-2" data-name="Слой 1"><polygon points="704.39 118.63 835.69 0 703.73 0 497.12 0 496.52 0.54 496.52 0 365.23 0 0 330.47 0 504.35 365.23 175.28 365.23 305.91 262.06 305.91 129.17 426.54 365.23 426.54 365.23 493.19 365.83 493.19 496.52 493.19 497.12 493.19 497.12 305.91 704.39 305.91 704.39 187.28 497.12 187.28 497.12 118.63 704.39 118.63"/><path d="M1090.15,74.31Q1015.69,0,916.9,0H902.21L770.7,118.63V493.19H902V118.63q52.92,0,92.11,38.32t39.19,90.31q0,46.67-38.24,88.64-35.55,38.67-63.73,38.66V493.19q88.88,0,161.07-74t72.19-171.95Q1164.58,148.64,1090.15,74.31Z"/></g></g></svg>