<?xml version="1.0" encoding="utf-8"?>
<!-- Generator: Adobe Illustrator 26.0.1, SVG Export Plug-In . SVG Version: 6.00 Build 0)  -->
<svg version="1.1" id="Слой_1" xmlns="http://www.w3.org/2000/svg" xmlns:xlink="http://www.w3.org/1999/xlink" x="0px" y="0px"
	 viewBox="0 0 1164.6 504.4" style="enable-background:new 0 0 1164.6 504.4;" xml:space="preserve">
<style type="text/css">
	.st0{fill:#FFFFFF;}
</style>
<g id="Слой_2_00000145770596621908692120000014920192349990571935_">
	<g id="Слой_1-2">
		<polygon class="st0" points="704.4,118.6 835.7,0 703.7,0 497.1,0 496.5,0.5 496.5,0 365.2,0 0,330.5 0,504.4 365.2,175.3 
			365.2,305.9 262.1,305.9 129.2,426.5 365.2,426.5 365.2,493.2 365.8,493.2 496.5,493.2 497.1,493.2 497.1,305.9 704.4,305.9 
			704.4,187.3 497.1,187.3 497.1,118.6 		"/>
		<path class="st0" d="M1090.2,74.3C1040.5,24.8,982.8,0,916.9,0h-14.7L770.7,118.6v374.6H902V118.6c35.3,0,66,12.8,92.1,38.3
			s39.2,55.6,39.2,90.3c0,31.1-12.7,60.7-38.2,88.6c-23.7,25.8-44.9,38.7-63.7,38.7v118.6c59.3,0,112.9-24.7,161.1-74
			s72.2-106.6,72.2-171.9C1164.6,181.5,1139.8,123.9,1090.2,74.3z"/>
	</g>
</g>
</svg>
