<svg xmlns="http://www.w3.org/2000/svg" xmlns:xlink="http://www.w3.org/1999/xlink" viewBox="0 0 3182.19 1935.1"><defs><style>.cls-1,.cls-13,.cls-6{fill:none;}.cls-2{fill:#aec6f8;}.cls-14,.cls-16,.cls-2,.cls-3,.cls-4,.cls-5,.cls-7,.cls-8{fill-rule:evenodd;}.cls-3{fill:#ffebe2;}.cls-4{fill:#24245b;}.cls-5{fill:#f99382;}.cls-13,.cls-6{stroke:#24245b;stroke-linecap:round;stroke-linejoin:round;}.cls-6{stroke-width:8.33px;}.cls-7{fill:#efc2e9;}.cls-8{fill:#006cff;}.cls-9{clip-path:url(#clip-path);}.cls-10{clip-path:url(#clip-path-2);}.cls-11{clip-path:url(#clip-path-3);}.cls-12{clip-path:url(#clip-path-4);}.cls-13{stroke-width:12.5px;}.cls-14{fill:url(#Безымянный_градиент);}.cls-15{clip-path:url(#clip-path-5);}.cls-16{fill:#c47cb9;}</style><clipPath id="clip-path"><path class="cls-1" d="M2172,1238a40.1,40.1,0,0,0-40.1-40.1h-986.4a40.1,40.1,0,0,0-40.1,40.1v697H2172V1238Z"/></clipPath><clipPath id="clip-path-2"><path class="cls-1" d="M2176.68,1503.9l-341.5-174.4s-78.9-35.1-32-102c-46.3-27.1-28.1-101.6,13.6-97.5-62.9-43-11.4-107.1,30.2-87.6l98.9,45.3-30.2-64.1s-6.5-30.3,30.2-40.2c33.6-9.1,40.6,102.6,152.4,160.2l388.8,186.6Z"/></clipPath><clipPath id="clip-path-3"><path class="cls-1" d="M1131.78,861.5c21.3-21.9,54.2-45.8,93.5-66.6,47.2-24.9,92.9-39.6,124.6-41.7a234.33,234.33,0,0,0,28.7,52.6c22.9,31.6,70.1,74,125.2,81.1,60.4,7.7,36.2,90.3-61.7,58.3,0,0,8.3,19.4,19.4,50.3,18.6,51.9,58.3,176.1,0,183.3-20.8,2.5-35.8-11.5-44.5-54-11-53.6-23.3-71.2-23.3-71.2a533.1,533.1,0,0,1-28.1,92.9h-83l15.6-56s-27.9,25.2-70.3,0c-49.4-29.4-122.1-101.9-56.6-142.8l-40.1-85.5.1-.1.5-.6Z"/></clipPath><clipPath id="clip-path-4"><path class="cls-1" d="M1722.88,547.7c120.3,0,245.2,97.6,278.9,217.9s-36.7,217.9-156.9,217.9-245.2-97.6-278.9-217.9S1602.58,547.7,1722.88,547.7Z"/></clipPath><radialGradient id="Безымянный_градиент" cx="1022.66" cy="-1816.12" r="1" gradientTransform="translate(-346984.03 359659.22) rotate(14.8) scale(240.09)" gradientUnits="userSpaceOnUse"><stop offset="0" stop-color="#fff" stop-opacity="0.15"/><stop offset="1" stop-color="#fff" stop-opacity="0.4"/></radialGradient><clipPath id="clip-path-5"><path class="cls-1" d="M1879.88,1389.4a15,15,0,0,0-14.9-14.9h-452.6a14.75,14.75,0,0,0-10.5,4.4,14.93,14.93,0,0,0-4.4,10.5v109.9a14.75,14.75,0,0,0,4.4,10.5,14.93,14.93,0,0,0,10.5,4.4H1865a15,15,0,0,0,14.9-14.9Z"/></clipPath></defs><g id="Слой_2" data-name="Слой 2"><g id="图层_1" data-name="图层 1"><g id="图层2"><path class="cls-2" d="M2927.28,1161.9a468.79,468.79,0,0,0-426.8-275h-892.1a47.17,47.17,0,0,0-43,66.7c82.8,182.4,310.6,684.4,366.7,807.8a47.24,47.24,0,0,0,43,27.7h1153.1a54.09,54.09,0,0,0,49.2-76.4c-54.7-120.4-163.7-360.5-250.1-550.8ZM1178.38,661.3a47.14,47.14,0,0,0-43-27.7H272.08a272,272,0,0,0-247.7,384.5c106.8,235.4,235.6,519.1,303.2,668.1a175.28,175.28,0,0,0,159.7,102.9H1617a47.17,47.17,0,0,0,43-66.7c-99.6-219.5-414.7-913.7-481.6-1061.1Z"/><path class="cls-3" d="M1646.88,382.5s382.1,250.2,573.3,474.9c375.7,441.6,418.9,552.7,418.9,552.7,60,127.7-59.9,279.1-218.3,206.1l-244.2-112.3-1069.2,388.8s-281.9-77.3-440.2-240.5c0,0,130.4-417.9,419.3-776.3,179.7-222.9-251-816.4-133.7-869.5,47.3-21.3,694.1,376.1,694.1,376.1Z"/><path class="cls-4" d="M1585.38,862.1s59.2,96.2,217.6,104V857.3Z"/><path class="cls-3" d="M1107.38,915.3c-1-1.9-264.6-470.7-342.5-675.4C704,79.9,840.58-28.2,965.18,6.5c41.1,11.5,117.7,174.5,166.6,267.4,120.6,229.2,259.1,491.6,259.1,491.6,13.2,25.1-39.4,79-117.7,120.3S1120.68,940.3,1107.38,915.3Z"/><path class="cls-5" d="M1724.68,325.7s-305.2,390-120.2,556.5c150.1,135.1,450.5-207.9,491-300.2l-273.3-278.3Z"/><path class="cls-5" d="M1691.38,379.4c-.8,16.3-87.9,147.9-87.9,147.9-26.2-25.4-30.1-107.2,7.2-164.8C1641.08,315.6,1693.28,342.4,1691.38,379.4Z"/><path class="cls-6" d="M1631,439.3c2.9-10.8-10.5-23.5-16.3-12.9"/><path class="cls-5" d="M2080,578.4c24.3-7.7,81.5,39.7,0,103.7-58.4,45.8-94.5,48.6-106.8,37.8S2080,578.4,2080,578.4Z"/><path class="cls-7" d="M2042.48,1186.5a40.1,40.1,0,0,0-40.1-40.1h-763.7a40.1,40.1,0,0,0-40.1,40.1v748.6h843.9Z"/><path class="cls-8" d="M2172,1238a40.1,40.1,0,0,0-40.1-40.1h-986.4a40.1,40.1,0,0,0-40.1,40.1v697H2172V1238Z"/><g class="cls-9"><path class="cls-4" d="M1832.38,1328.1s221.8,175.8,339.6,276.3V1446.1Z"/></g><path class="cls-4" d="M1822.58,826.2H1745l183.5,389.4h77.6l-183.5-389.4Z"/><path class="cls-5" d="M2176.68,1503.9l-341.5-174.4s-78.9-35.1-32-102c-46.3-27.1-28.1-101.6,13.6-97.5-62.9-43-11.4-107.1,30.2-87.6l98.9,45.3-30.2-64.1s-6.5-30.3,30.2-40.2c33.6-9.1,40.6,102.6,152.4,160.2l388.8,186.6Z"/><g class="cls-10"><path class="cls-3" d="M2108.28,1148.5c-51.9,48-112.7,165.1-115.3,261.6l173.6,130,386.5-194.1-386.5-213.8Z"/></g><path class="cls-4" d="M1225.28,795c78.3-41.3,152.6-54.5,165.8-29.4s-39.6,79-117.9,120.3-152.6,54.5-165.8,29.4S1147,836.3,1225.28,795Z"/><path class="cls-6" d="M1112.08,913.3l-81.4-147.7m356.9,4.7-256.4-497.5"/><path class="cls-5" d="M1131.78,861.5c21.3-21.9,54.2-45.8,93.5-66.6,47.2-24.9,92.9-39.6,124.6-41.7a234.33,234.33,0,0,0,28.7,52.6c22.9,31.6,70.1,74,125.2,81.1,60.4,7.7,36.2,90.3-61.7,58.3,0,0,8.3,19.4,19.4,50.3,18.6,51.9,58.3,176.1,0,183.3-20.8,2.5-35.8-11.5-44.5-54-11-53.6-23.3-71.2-23.3-71.2a533.1,533.1,0,0,1-28.1,92.9h-83l15.6-56s-27.9,25.2-70.3,0c-49.4-29.4-122.1-101.9-56.6-142.8l-40.1-85.5.1-.1.5-.6Z"/><g class="cls-11"><path class="cls-4" d="M1355.18,765.6c-31.5-11.3-188.2,75.8-204.5,138l-18.9-42,89.4-106,109-14.8,25,1.7v23.1Z"/></g><path class="cls-4" d="M1754.38,406.1c-37.7,113.8,98.9,270.8,205.8,164.6,56.8,247.8,252.9,151.1,229.5,3,120.3,64.9,181.5-161.1,7.7-252.9,100-49.6-29-222.5-201.6-129.2C1862.18.8,1650.38,117.7,1717,221.7c-166.5,10.4-219.6,224.1,37.4,184.4Z"/><path class="cls-6" d="M1646.88,388.4c.3,6.4-11.8,46.3-26.3,75.6m295.1,170.9s51.3-16.9,72.1,38.9m-294-148.7s56.7-12.8,90,46.3"/><path class="cls-3" d="M1722.88,547.7c120.3,0,245.2,97.6,278.9,217.9s-36.7,217.9-156.9,217.9-245.2-97.6-278.9-217.9S1602.58,547.7,1722.88,547.7Z"/><g class="cls-12"><path class="cls-4" d="M1930,826.2c-.7,49.4-44.3,167.6-161.7,144.7l-74-27.3L1930,826.2Z"/><path class="cls-5" d="M2006.08,728.6s-153.3,233.5-282.2,223.7h-54.8c-112-81.1-175.8-202.2-217.7-341.6l283-171.5C1840.68,522.3,1933.58,616.8,2006.08,728.6Z"/><g id="五官"><path class="cls-13" d="M1691.38,857.3c-39.7-14.1-57-65.1-34.8-104.2"/><path class="cls-4" d="M1754,588.3c10,7.1,9.4,25.1-1.3,40.2s-27.6,21.6-37.6,14.5-9.4-25.1,1.3-40.2S1744,581.2,1754,588.3Zm173.1,100.5c9.8,7.4,8.6,25.4-2.6,40.2s-28.2,20.7-38,13.3-8.6-25.4,2.6-40.2S1917.38,681.3,1927.08,688.8Z"/><path class="cls-13" d="M1832.38,669.9s-52.8,97.5-73.7,136.3a19.07,19.07,0,0,1-24.6,8.3L1711,804"/></g><path class="cls-14" d="M1722.88,547.7c120.3,0,245.2,97.6,278.9,217.9s-36.7,217.9-156.9,217.9-245.2-97.6-278.9-217.9S1602.58,547.7,1722.88,547.7Z"/></g><path class="cls-4" d="M1722.88,547.7c120.3,0,245.2,97.6,278.9,217.9s-36.7,217.9-156.9,217.9-245.2-97.6-278.9-217.9S1602.58,547.7,1722.88,547.7Zm0,12.5c115.1,0,234.6,93.6,266.8,208.8,15.6,55.9,7.6,106.7-18.8,143.4-26.3,36.4-70.4,58.6-126,58.6-115.1,0-234.6-93.6-266.8-208.8-15.7-55.9-7.6-106.7,18.8-143.4C1623.08,582.4,1667.28,560.2,1722.88,560.2Z"/><path class="cls-6" d="M1816.68,1130.1l90.1,39.5m39.1-81.9,70.1,32.1m-212.9,107.7,65.7,28.4m-579.5-274.8s45,79.7,8.9,109.3m-126.9-142.8,27.3,58m159.7-67.7c27.2,55,41.4,89.5,35.4,115.6m48.4-108.3s-17.2-35.4-36.4-58.3"/><path class="cls-6" d="M2152.28,1171.8l334.8,157.7"/><path class="cls-7" d="M1879.88,1389.4a15,15,0,0,0-14.9-14.9h-452.6a14.75,14.75,0,0,0-10.5,4.4,14.93,14.93,0,0,0-4.4,10.5v109.9a14.75,14.75,0,0,0,4.4,10.5,14.93,14.93,0,0,0,10.5,4.4H1865a15,15,0,0,0,14.9-14.9Z"/><g class="cls-15"><path class="cls-16" d="M1879.88,1392.3s-193.9,9.9-467,129.1l-15.4,105.7,518.1-60.7Z"/></g></g></g></g></svg>